<?xml version="1.0" encoding="UTF-8" standalone="no"?>
<!-- Created with Inkscape (http://www.inkscape.org/) -->

<svg
   version="1.1"
   id="svg1"
   width="1024"
   height="1024"
   viewBox="0 0 1024 1024"
   xmlns="http://www.w3.org/2000/svg"
   xmlns:svg="http://www.w3.org/2000/svg">
  <defs
     id="defs1" />
  <g
     id="g1">
    <path
       style="fill:#14b089"
       d="M 333.90116,571.57981 C 324.05554,569.55264 319.15114,558.23408 324,548.72953 c 1.97344,-3.86826 2,-5.89377 2,-152.51213 V 247.62559 l 31.75,0.30197 c 31.32846,0.29796 31.81638,0.33436 36.75,2.74191 5.71417,2.78846 12.77979,9.73678 27.02398,26.57536 5.48681,6.48617 18.08353,21.28615 27.99272,32.88886 20.68433,24.21939 68.48543,81.54286 82.43827,98.86065 5.20023,6.45436 10.00975,11.73519 10.68782,11.73519 1.67997,0 12.69862,-12.43364 13.50753,-15.24212 0.35768,-1.24183 0.69518,-31.7637 0.75,-67.82638 0.11108,-73.07055 0.0688,-72.57096 6.76373,-79.9814 1.95315,-2.1619 6.53605,-5.39759 10.18424,-7.19042 l 6.63306,-3.25968 30.00944,0.009 30.00944,0.009 4.74431,2.78035 c 2.60938,1.5292 5.42183,4.09051 6.24989,5.69181 2.18166,4.21886 1.93335,12.79689 -0.48525,16.7637 -1.95385,3.20456 -1.98364,5.44244 -2.0026,150.45634 -0.0106,80.96187 -0.39304,147.57719 -0.8499,148.03405 -0.45686,0.45686 -16.77725,0.70151 -36.26753,0.54367 l -35.43688,-0.28792 -6.69284,-3.29627 c -7.52157,-3.70443 -4.37248,-0.2641 -66.09135,-72.20373 -60.28924,-70.27326 -84.97907,-98 -87.26607,-98 -1.18987,0 -1.40201,11.03842 -1.40201,72.95078 0,48.72453 -0.36077,74.63298 -1.08635,78.01627 -2.05968,9.60392 -11.38787,19.48403 -20.75107,21.97882 -4.19608,1.11803 -54.4956,1.88568 -59.26142,0.90441 z m 50.71155,-22.37885 c 1.71199,-0.2808 3.96199,-1.44873 5,-2.5954 1.80638,-1.99549 1.8994,-5.10984 2.16972,-72.64802 0.19809,-49.49288 -0.0397,-70.88525 -0.79625,-71.64183 -0.77157,-0.77157 -3.53398,1.48264 -9.7026,7.91757 -4.74316,4.94794 -13.9397,14.47763 -20.43675,21.17709 l -11.81283,12.18085 -0.0522,50.6153 c -0.0499,48.38369 0.0326,50.73451 1.87099,53.31916 l 1.92322,2.70385 14.36201,-0.25901 c 7.89911,-0.14246 15.76273,-0.48876 17.47472,-0.76956 z M 622,548.66127 c 0,-2.57742 -37.82467,-46.43174 -40.04772,-46.43174 -1.22766,0 -1.4397,3.36171 -1.37094,21.73489 0.0732,19.56229 0.26362,21.93631 1.90498,23.75 1.70532,1.88435 3.04654,2.01511 20.66867,2.01511 12.69944,0 18.84501,-0.34837 18.84501,-1.06826 z m -64.75679,-45.18174 c 0.38539,-30.50258 0.40652,-30.20946 -2.44777,-33.95091 -1.38425,-1.8145 -4.57699,-5.54909 -7.09498,-8.29909 l -4.57815,-5 -11.74231,11.68648 c -10.01935,9.97171 -11.60569,11.97503 -10.81116,13.65299 1.24669,2.63289 34.58905,41.16053 35.6209,41.16053 0.44564,0 0.91971,-8.6625 1.05347,-19.25 z m 67.75788,-11 c 5.9e-4,-12.2375 0.29912,-44.8625 0.66339,-72.5 0.59523,-45.16057 0.50417,-50.25 -0.89905,-50.25 -0.85876,0 -6.43778,5.2875 -12.39784,11.75 -5.96006,6.4625 -15.68098,16.80969 -21.60203,22.99375 L 580,415.71703 v 24.41917 24.41917 l 11.25,12.89846 c 6.1875,7.09416 15.94146,18.38334 21.67546,25.08708 5.734,6.70374 10.7965,12.18862 11.25,12.18862 0.4535,0 0.82503,-10.0125 0.82563,-22.25 z M 515.34164,449.79985 C 521.20374,443.78853 526,438.39856 526,437.82214 c 0,-1.05023 -9.33158,-12.47065 -50.67448,-62.01776 -44.13988,-52.89912 -58.25993,-69.55299 -59.25086,-69.8833 -0.65735,-0.21911 -1.10789,8.84258 -1.29199,25.98601 -0.31666,29.48762 -0.56384,28.24754 7.14046,35.82244 4.76298,4.68298 31.27381,35.19459 56.04256,64.5 14.28667,16.90343 24.90451,28.5 26.09465,28.5 0.34262,0 5.4192,-4.91835 11.2813,-10.92968 z M 358.0895,401.47953 C 374.99085,382.92239 388,367.68191 388,366.43878 c 0,-0.72638 1.0125,-2.69185 2.25,-4.36771 l 2.25,-3.04702 -0.5,-40.89726 c -0.37432,-30.61747 -0.82165,-41.46021 -1.77964,-43.13691 -2.64221,-4.62443 -5.93801,-5.33153 -23.46862,-5.03513 l -16.25174,0.27478 -0.64411,9 c -0.93762,13.10108 -0.99887,130.5 -0.0681,130.5 0.43329,0 4.16905,-3.7125 8.30169,-8.25 z m 245.12618,-44.49938 21.47292,-22.24937 0.55705,-14.25063 c 0.85699,-21.92413 -0.007,-44.38838 -1.84376,-47.94034 l -1.53444,-2.96729 -18.52205,0.32851 -18.52205,0.3285 -2.41167,2.80576 L 580,275.84106 v 52.02757 c 0,29.15378 0.3831,51.88102 0.87138,51.69423 0.47926,-0.18333 10.5342,-10.34555 22.3443,-22.58271 z"
       id="path7" />
    <path
       style="fill:#696c6d"
       d="M 333.90116,571.57981 C 324.05554,569.55264 319.15114,558.23408 324,548.72953 c 1.97344,-3.86826 2,-5.89377 2,-152.51213 V 247.62559 l 31.75,0.30197 c 31.32846,0.29796 31.81638,0.33436 36.75,2.74191 5.71417,2.78846 12.77979,9.73678 27.02398,26.57536 5.48681,6.48617 18.08353,21.28615 27.99272,32.88886 20.68433,24.21939 68.48543,81.54286 82.43827,98.86065 5.20023,6.45436 10.00975,11.73519 10.68782,11.73519 1.67997,0 12.69862,-12.43364 13.50753,-15.24212 0.35768,-1.24183 0.69518,-31.7637 0.75,-67.82638 0.11108,-73.07055 0.0688,-72.57096 6.76373,-79.9814 1.95315,-2.1619 6.53605,-5.39759 10.18424,-7.19042 l 6.63306,-3.25968 30.00944,0.009 30.00944,0.009 4.74431,2.78035 c 5.80267,3.40059 7.75546,6.93635 7.75546,14.04214 0,4.08972 -0.51688,6.02448 -2.0837,7.79966 -1.81741,2.05908 -1.99525,2.10518 -1.39155,0.36078 3.54048,-10.23032 2.64744,-14.91393 -3.72366,-19.52913 -3.54382,-2.56806 -4.98205,-2.9718 -10.58305,-2.9718 -6.12257,0 -6.66638,0.19562 -9.81007,3.52891 -4.83939,5.13124 -5.79797,14.24268 -1.84369,17.52444 0.78965,0.65535 1.42571,1.69894 1.41348,2.31909 -0.0122,0.62016 -0.83005,0.0774 -1.81738,-1.20608 -1.78276,-2.31752 -1.9213,-2.33133 -20.06608,-2 l -18.27091,0.33364 -2.4117,2.80576 L 580,275.84106 v 52.02757 c 0,29.15378 0.3831,51.88102 0.87138,51.69423 0.47926,-0.18333 10.5342,-10.34555 22.3443,-22.58271 l 21.47292,-22.24937 0.556,-14.25063 c 0.3058,-7.83784 0.35914,-21.33812 0.11853,-30.00062 -0.2406,-8.6625 -0.21572,-15.75 0.0553,-15.75 0.27101,0 2.20024,1.16625 4.28716,2.59166 3.14273,2.14655 4.62123,2.5142 8.60856,2.14063 2.72785,-0.25557 6.05743,-1.37023 7.68302,-2.57208 l 2.86886,-2.12104 0.31699,2.23042 c 0.17434,1.22672 0.092,67.93041 -0.18302,148.23041 l -0.5,146 h -36.02294 -36.02294 l -6.69376,-3.29627 c -7.52276,-3.7045 -4.37121,-0.26153 -66.09228,-72.20373 -60.28924,-70.27326 -84.97907,-98 -87.26607,-98 -1.18987,0 -1.40201,11.03842 -1.40201,72.95078 0,48.72453 -0.36077,74.63298 -1.08635,78.01627 -2.05968,9.60392 -11.38787,19.48403 -20.75107,21.97882 -4.19608,1.11803 -54.4956,1.88568 -59.26142,0.90441 z m 12.19272,-2.39883 c 7.07316,-3.65767 9.30114,-14.4926 4.15612,-20.21162 -1.5125,-1.68124 -3.44244,-4.05491 -4.28876,-5.27481 -2.1059,-3.03551 -10.30269,-3.87405 -14.85544,-1.51973 -7.37531,3.81392 -9.29014,17.83191 -3.25957,23.86248 4.44203,4.44203 12.91436,5.90163 18.24765,3.14368 z m 38.51883,-19.98002 c 1.71199,-0.2808 3.96199,-1.44873 5,-2.5954 1.80638,-1.99549 1.8994,-5.10984 2.16972,-72.64802 0.19809,-49.49288 -0.0397,-70.88525 -0.79625,-71.64183 -0.77157,-0.77157 -3.53398,1.48264 -9.7026,7.91757 -4.74316,4.94794 -13.9397,14.47763 -20.43675,21.17709 l -11.81283,12.18085 -0.0522,50.6153 c -0.0499,48.38369 0.0326,50.73451 1.87099,53.31916 l 1.92322,2.70385 14.36201,-0.25901 c 7.89911,-0.14246 15.76273,-0.48876 17.47472,-0.76956 z M 622,548.66127 c 0,-2.57742 -37.82467,-46.43174 -40.04772,-46.43174 -1.22766,0 -1.4397,3.36171 -1.37094,21.73489 0.0732,19.56229 0.26362,21.93631 1.90498,23.75 1.70532,1.88435 3.04654,2.01511 20.66867,2.01511 12.69944,0 18.84501,-0.34837 18.84501,-1.06826 z m -64.75679,-45.18174 c 0.38539,-30.50258 0.40652,-30.20946 -2.44777,-33.95091 -1.38425,-1.8145 -4.57699,-5.54909 -7.09498,-8.29909 l -4.57815,-5 -11.74231,11.68648 c -10.01935,9.97171 -11.60569,11.97503 -10.81116,13.65299 1.24669,2.63289 34.58905,41.16053 35.6209,41.16053 0.44564,0 0.91971,-8.6625 1.05347,-19.25 z m 67.75788,-11 c 5.9e-4,-12.2375 0.29912,-44.8625 0.66339,-72.5 0.59523,-45.16057 0.50417,-50.25 -0.89905,-50.25 -0.85876,0 -6.43778,5.2875 -12.39784,11.75 -5.96006,6.4625 -15.68098,16.80969 -21.60203,22.99375 L 580,415.71703 v 24.41917 24.41917 l 11.25,12.89846 c 6.1875,7.09416 15.94146,18.38334 21.67546,25.08708 5.734,6.70374 10.7965,12.18862 11.25,12.18862 0.4535,0 0.82503,-10.0125 0.82563,-22.25 z M 515.34164,449.79985 C 521.20374,443.78853 526,438.39856 526,437.82214 c 0,-1.05023 -9.33158,-12.47065 -50.67448,-62.01776 -44.38308,-53.19059 -58.26212,-69.55372 -59.28353,-69.89419 -0.70376,-0.23458 -1.04642,7.71346 -1.05564,24.48601 -0.008,13.65833 -0.27945,25.8246 -0.6043,27.03616 l -0.59064,2.20283 -2.85637,-2.11181 c -3.46583,-2.5624 -10.82649,-2.75022 -14.46069,-0.369 -1.34674,0.88242 -3.34798,3.36729 -4.4472,5.52193 -1.09921,2.15464 -2.455,4.19961 -3.01286,4.54439 -1.82357,1.12702 -1.06509,-2.03382 1.23571,-5.14963 l 2.25,-3.04702 -0.5,-40.89726 c -0.37432,-30.61747 -0.82165,-41.46021 -1.77964,-43.13691 -2.64221,-4.62443 -5.93801,-5.33153 -23.46862,-5.03513 l -16.25174,0.27478 -0.64411,9 c -0.97537,13.62848 -0.97994,130.5 -0.005,130.5 0.46793,0 7.55543,-7.52398 15.75,-16.71995 8.19457,-9.19598 16.57547,-18.53348 18.62422,-20.75 l 3.72499,-4.03005 0.025,3.60078 c 0.043,6.18678 1.8918,9.73685 6.46733,12.41829 8.48265,4.97116 18.43225,2.56742 22.51733,-5.44 2.82298,-5.5335 2.63964,-10.21339 -0.54855,-14.00234 -4.21815,-5.01299 -0.88649,-3.50478 4.81588,2.18009 5.45366,5.43693 31.66741,35.57982 56.7387,65.24318 14.28667,16.90343 24.90451,28.5 26.09465,28.5 0.34262,0 5.4192,-4.91835 11.2813,-10.92968 z"
       id="path6" />
    <path
       id="path5"
       style="fill:#1e9c78"
       d="m 334.1228,571.68787 c -10.23626,-2.2968 -15.01877,-13.36146 -10.01482,-23.17 1.15939,-2.27258 2.19982,-6.19216 2.31207,-8.71016 0.11225,-2.518 0.28866,-69.26568 0.39202,-148.32818 L 327,247.72953 h 27.7899 c 41.65158,0 40.56331,-0.47506 65.28831,28.5 46.14576,54.07792 81.65809,96.43122 111.15926,132.5726 4.74656,5.81494 9.30596,11.13352 10.13201,11.81907 1.26142,1.04689 2.51292,0.17945 7.81621,-5.41763 3.47287,-3.66525 6.76431,-7.40883 7.31431,-8.31907 0.62801,-1.03933 1.186,-27.5086 1.5,-71.15497 0.55697,-77.41827 0.015,-71.82063 7.66758,-79.19116 2.10783,-2.03014 6.30742,-4.83825 9.33242,-6.24023 l 5.5,-2.54907 30.41214,-0.01 30.41214,-0.01 4.33229,2.53889 c 5.39721,3.16298 7.34343,6.82055 7.34343,13.80067 0,4.08972 -0.51688,6.02448 -2.0837,7.79966 -1.81741,2.05908 -1.99525,2.10518 -1.39155,0.36078 3.54048,-10.23032 2.64744,-14.91393 -3.72366,-19.52913 -3.54382,-2.56667 -4.98205,-2.97041 -10.58305,-2.97041 -6.12257,0 -6.66638,0.19562 -9.81007,3.52891 -4.83939,5.13124 -5.79797,14.24268 -1.84369,17.52444 0.78965,0.65535 1.43348,1.69894 1.43075,2.31909 -0.003,0.62016 -1.03841,-0.16391 -2.3015,-1.74238 l -2.29654,-2.86995 -17.15658,0.3934 c -15.42584,0.35371 -17.43582,0.60189 -19.92469,2.46009 -1.52246,1.13668 -3.07147,3.15113 -3.44224,4.47655 -0.98973,3.5381 -0.99117,102.1759 -0.002,103.73693 0.80565,1.27078 17.17558,-14.71565 38.98328,-38.07001 l 7.23015,-7.74294 -0.2927,-29.50778 c -0.16099,-16.22929 -0.20018,-29.50746 -0.0871,-29.50707 0.11308,4e-4 1.91308,1.16697 4,2.59238 3.14273,2.14655 4.62123,2.5142 8.60856,2.14063 2.64779,-0.24807 6.05158,-1.3659 7.56399,-2.48408 l 2.74984,-2.03304 -0.37884,147.14242 c -0.20837,80.92832 -0.57074,147.7315 -0.80529,148.45151 -0.34316,1.05346 -7.21926,1.24874 -35.21228,1 l -34.78536,-0.3091 -6.97286,-3.5 c -7.98307,-4.00707 -7.49649,-3.48033 -62.35416,-67.5 -65.67994,-76.64942 -90.18664,-103.97702 -92.5408,-103.19292 -0.75228,0.25057 -1.22896,23.59548 -1.57791,77.27597 -0.49812,76.62772 -0.50819,76.93225 -2.67758,80.98516 -2.76036,5.15696 -9.24273,11.03991 -15.20002,13.79446 -4.27627,1.97728 -6.45699,2.15305 -29.1224,2.34729 -13.475,0.11547 -25.625,0.3891 -27,0.60805 -1.375,0.21896 -4.01974,0.0571 -5.8772,-0.35967 z m 11.97108,-2.50689 c 7.07316,-3.65767 9.30114,-14.4926 4.15612,-20.21162 -1.5125,-1.68124 -3.44244,-4.05491 -4.28876,-5.27481 -2.1059,-3.03551 -10.30269,-3.87405 -14.85544,-1.51973 -7.37531,3.81392 -9.29014,17.83191 -3.25957,23.86248 4.44203,4.44203 12.91436,5.90163 18.24765,3.14368 z m 39.89439,-19.75789 c 6.75506,-2.31134 6.51173,0.562 6.51173,-76.89347 0,-52.06866 -0.29734,-69.99727 -1.17544,-70.87544 -1.43844,-1.43855 -3.7958,0.79515 -26.81513,25.40848 l -16.67822,17.83313 0.21593,49.16687 0.21594,49.16687 2.38265,3.75 2.38265,3.75 14.73581,-0.0564 c 8.64728,-0.0331 16.17709,-0.5496 18.22408,-1.25 z M 622,549.74268 c 1.8466,-1.17717 2.51709,-0.21091 -12.59644,-18.15289 -20.33498,-24.14063 -25.93126,-30.3382 -27.70279,-30.67937 -1.56079,-0.30058 -1.69499,1.46865 -1.63048,21.49579 0.0386,12.00282 0.39915,22.65959 0.80109,23.68169 1.53366,3.8999 4.83571,4.56982 22.62862,4.59088 9.35,0.0111 17.675,-0.41017 18.5,-0.9361 z m -64,-51.81887 c 0,-24.16734 -0.0579,-24.88306 -2.25,-27.81097 -5.1627,-6.89563 -11.3506,-13.38236 -12.76631,-13.38282 -2.03631,-6.6e-4 -24.33445,22.44724 -23.82265,23.98264 0.94843,2.84529 35.48076,41.91774 37.08896,41.96521 1.62102,0.0478 1.75,-1.77655 1.75,-24.75406 z m 68,-56.2533 c 0,-60.36908 -0.23141,-72.94098 -1.3426,-72.94098 -0.73842,0 -5.35092,4.36869 -10.25,9.7082 -4.89907,5.33951 -14.46928,15.57701 -21.26713,22.75 -6.79784,7.17299 -12.79412,14.1668 -13.32506,15.5418 -0.59569,1.54271 -0.6942,11.3217 -0.25727,25.53817 l 0.70807,23.03818 18.44548,21.46182 c 23.1323,26.91508 25.19346,29.13861 26.34889,28.42451 C 625.63264,514.83853 626,486.09423 626,441.67051 Z m -110.39688,8.62537 c 5.35871,-5.7385 10.12362,-11.11357 10.58868,-11.94459 0.6175,-1.10341 -0.99327,-3.61625 -5.9719,-9.31635 -3.74961,-4.29298 -9.70957,-11.40541 -13.24435,-15.80541 -6.33434,-7.88482 -38.04814,-45.94492 -72.49326,-87 -9.69042,-11.55 -18.1507,-21 -18.80062,-21 -0.8735,0 -1.25107,7.11134 -1.44777,27.26803 l -0.26611,27.26803 -2.94456,-2.17701 c -3.55386,-2.62748 -10.86835,-2.84577 -14.54888,-0.4342 -1.34674,0.88242 -3.34798,3.36729 -4.4472,5.52193 -1.09921,2.15464 -2.455,4.19961 -3.01286,4.54439 -1.82324,1.12683 -1.06527,-2.03351 1.23571,-5.15224 2.24704,-3.04562 2.2499,-3.10145 2.17081,-42.44428 -0.0908,-45.16911 -0.20366,-45.98427 -6.78074,-48.9708 -3.44075,-1.56238 -6.61949,-1.88364 -18.81864,-1.90189 -11.31515,-0.0169 -15.0014,0.30087 -16.08746,1.38693 -1.09776,1.09775 -1.55473,6.89475 -2.06927,26.25 -1.03412,38.90055 -0.79054,111.6096 0.37971,113.34111 0.85241,1.26124 1.44687,1.00518 3.73468,-1.60868 1.4965,-1.70978 8.12091,-9.14057 14.72091,-16.51287 6.6,-7.3723 13.9125,-15.59924 16.25,-18.2821 l 4.25,-4.87793 v 3.49157 c 0,6.04391 1.87957,9.63513 6.44233,12.30908 8.48265,4.97116 18.43225,2.56742 22.51733,-5.44 2.82298,-5.5335 2.63964,-10.21339 -0.54855,-14.00234 -4.34805,-5.16737 -0.73813,-3.42073 4.49168,2.17327 5.64493,6.03803 24.5342,27.82794 50.92929,58.75 26.96963,31.59515 30.09834,35 32.16136,35 1.08029,0 5.97081,-4.39512 11.60968,-10.43365 z" />
    <path
       style="fill:#334d48"
       d="M 348.75571,569.21769 C 352.21905,566.74642 354,562.37537 354,556.34649 v -5.48236 l 16.47995,-0.3173 16.47994,-0.3173 2.77006,-2.77222 2.77005,-2.77223 0.28181,-71.49695 c 0.25951,-65.83827 0.15049,-71.54735 -1.37745,-72.13368 -1.21155,-0.46491 -4.64708,2.44092 -12.73226,10.76918 -6.09014,6.27325 -15.48279,15.92358 -20.87254,21.4452 L 348,443.30812 v 49.63406 49.63406 l -3.22908,-1.61088 c -4.10175,-2.04622 -12.02104,-1.95719 -15.27007,0.17166 L 327,542.77564 V 395.91925 c 0,-80.77101 0.18649,-147.04389 0.41442,-147.27305 0.22792,-0.22917 14.29042,-0.19167 31.25,0.0833 l 30.83558,0.5 5.35577,2.82044 c 6.15728,3.24254 10.10546,7.11551 24.37362,23.90938 5.64883,6.64878 18.37648,21.57952 28.28365,33.17943 19.61788,22.9698 65.69028,78.20289 82.86457,99.34075 5.92102,7.2875 11.30879,13.25 11.97283,13.25 2.24024,0 13.63416,-12.4595 14.65775,-16.02857 0.61016,-2.12745 0.99181,-28.49952 0.99181,-68.5333 0,-71.6976 0.0216,-71.97635 6.12848,-78.93165 1.67345,-1.90595 6.03004,-4.93711 9.68133,-6.73591 l 6.6387,-3.27054 25.02574,-0.25778 c 22.46349,-0.23139 24.82701,-0.10341 23.08462,1.25 -1.06762,0.82928 -2.28615,1.50778 -2.70785,1.50778 -1.95756,0 -5.85102,8.87545 -5.85102,13.33786 v 4.66214 l -15.75,0.0564 c -17.29766,0.062 -21.98415,1.02896 -23.95919,4.94356 -0.96652,1.91569 -1.26477,14.71206 -1.27607,54.75 -0.0164,58.32104 -0.33513,56.04351 6.71625,48 2.04917,-2.3375 11.948,-12.6346 21.99739,-22.88244 L 626,334.96465 l 0.20804,-10.86756 c 0.11442,-5.97716 0.0531,-18.85506 -0.13632,-28.61756 -0.19253,-9.92394 0.0464,-17.73438 0.54196,-17.71456 0.48748,0.0195 2.01132,0.67854 3.38632,1.46456 3.34491,1.91212 10.38414,1.86983 14.16456,-0.0851 1.68588,-0.8718 3.35104,-1.2093 3.70034,-0.75 0.34931,0.45931 0.51238,66.43878 0.36238,146.62106 l -0.27272,145.78597 -35.72728,-0.28597 -35.72728,-0.28596 -5.61232,-2.63164 c -7.69564,-3.60853 -7.27731,-3.15129 -70.78377,-77.36836 -58.56751,-68.44515 -83.26432,-95.73959 -85.0302,-93.97371 -0.66124,0.66124 -1.11037,27.39741 -1.29336,76.99336 -0.26066,70.6433 -0.4067,76.26132 -2.07918,79.98035 -2.25393,5.012 -7.84423,10.85974 -13.70117,14.33211 -4.48575,2.65944 -4.57444,2.66884 -28,2.96676 -21.82179,0.27752 -23.33891,0.18392 -21.24429,-1.31071 z M 623.4792,549.76318 c 1.01869,-1.64826 -39.65839,-50.03365 -42.06275,-50.03365 -2.35183,0 -2.7354,4.62895 -2.13584,25.77521 0.77355,27.28278 -1.21182,25.22479 24.33469,25.22479 11.31849,0 19.51305,-0.39865 19.8639,-0.96635 z m -65.23599,-45.78365 c 0.40288,-32.71476 0.65857,-30.39766 -4.02294,-36.45561 -2.2503,-2.91191 -5.69331,-6.84311 -7.65115,-8.73599 l -3.5597,-3.44161 -3.18953,2.94161 c -10.79264,9.9537 -20.14101,19.17745 -20.93148,20.65245 -0.73243,1.36668 1.6333,4.68593 11.76002,16.5 20.06223,23.40506 24.55061,28.28915 25.99716,28.28915 1.08528,0 1.40274,-3.9244 1.59762,-19.75 z m 68.20168,-61.19952 c 0.40455,-40.12224 0.42798,-73.44716 0.0521,-74.05537 -0.3759,-0.60822 -1.25035,-0.96843 -1.94322,-0.80048 -0.69287,0.16795 -7.25164,6.83037 -14.57504,14.80537 -7.3234,7.975 -17.28955,18.6423 -22.147,23.70512 L 579,415.63977 v 24.4161 24.41611 l 16.16511,18.87877 c 24.20055,28.26314 27.9239,32.37878 29.29255,32.37878 0.9841,0 1.40895,-15.59564 1.98723,-72.94952 z m -110.63957,7.60307 c 6.15707,-6.24055 11.17778,-11.97805 11.15713,-12.75 -0.0207,-0.77195 -1.61684,-3.20355 -3.54708,-5.40355 -1.93025,-2.2 -8.2998,-9.85 -14.15456,-17 -16.12739,-19.69524 -32.07216,-38.81753 -61.28662,-73.5 -14.59356,-17.325 -27.42034,-32.72336 -28.50396,-34.21858 -1.08363,-1.49521 -2.75773,-2.73271 -3.72023,-2.75 -1.62274,-0.0291 -1.75,1.86534 -1.75,26.05191 0,20.47646 -0.2687,25.97191 -1.25,25.56498 -7.47193,-3.0985 -11.06293,-3.14052 -17.91966,-0.20967 -1.54046,0.65846 -1.69522,-2.37147 -2,-39.15808 -0.2985,-36.02921 -0.4999,-40.13038 -2.08976,-42.55535 -3.40204,-5.18904 -6.12244,-5.79998 -24.4877,-5.4994 l -16.75288,0.27419 -0.74697,12.5 c -1.18913,19.89926 -0.46967,129.5 0.85008,129.5 0.97854,0 21.76262,-22.68237 31.93447,-34.85117 l 3.82395,-4.57467 2.06924,5.16968 c 2.8664,7.16129 8.58238,11.18473 15.8898,11.18473 9.72163,0 15.58555,-5.74255 16.64203,-16.29756 l 0.5374,-5.36899 6.99534,8.36899 c 3.84744,4.60294 13.3005,15.56899 21.0068,24.36899 7.70631,8.8 21.4334,24.75989 30.50466,35.46642 18.44729,21.77276 23.24302,27.03358 24.64368,27.03358 0.52809,0 5.99776,-5.1059 12.15484,-11.34645 z"
       id="path3" />
    <path
       style="fill:#2b3235"
       d="m 351.3247,567.75549 c 2.93438,-3.48731 4.73171,-9.01703 4.39737,-13.52908 L 355.5,551.22953 370.48015,550.8862 c 17.35296,-0.39772 19.87667,-1.20818 21.52494,-6.91249 1.59205,-5.50978 0.93638,-143.43054 -0.68443,-143.97071 -1.45929,-0.48633 -8.68201,6.5274 -28.2001,27.38413 L 348,443.54472 v 48.69939 c 0,45.99033 -0.0974,48.659 -1.75,47.97327 -6.63802,-2.75431 -10.74281,-2.75181 -17.5,0.0107 -1.66195,0.67944 -1.75,-6.63616 -1.75,-145.39155 v -146.107 h 29.48927 c 39.23461,0 38.18415,-0.39225 57.23765,21.37278 5.92519,6.76842 17.74808,20.56385 26.27308,30.65651 8.525,10.09267 18.44652,21.7524 22.04782,25.91051 3.6013,4.15811 7.6513,8.96474 9,10.68141 1.3487,1.71666 10.34146,12.51666 19.98391,24 9.64245,11.48333 18.64245,22.28128 20,23.99544 6.23067,7.86738 28.02381,34.29603 29.48786,35.76008 2.02245,2.02245 2.45163,1.74737 10.48649,-6.72114 l 6.49392,-6.84441 0.50479,-69.65559 c 0.56873,-78.47789 0.0187,-73.23543 8.50482,-81.05768 8.7374,-8.05385 10.80376,-8.54918 37.24039,-8.92687 12.7875,-0.18269 23.25,-0.0232 23.25,0.35448 0,0.37765 -1.17953,1.61446 -2.62118,2.74846 C 620.96651,253.68764 619,258.53375 619,264.25868 v 4.5934 l -4.25,-0.59658 c -2.3375,-0.32811 -10.30249,-0.18387 -17.69997,0.32055 -12.81074,0.87353 -13.55928,1.0442 -15.75,3.59106 L 579,274.84106 v 52.88522 c 0,32.30587 0.36951,53.11359 0.94957,53.47209 0.82965,0.51274 17.40771,-15.9521 39.58107,-39.31075 L 626.5,334.54571 v -27.90858 c 0,-15.34971 0.0611,-27.90835 0.13569,-27.90809 0.0746,2.7e-4 1.42463,0.67272 3,1.49433 3.72783,1.94419 11.66147,1.92097 15.46375,-0.0453 l 3.00011,-1.55142 -0.29977,145.80142 L 647.5,570.22953 H 612 576.5 l -5.70082,-2.79935 c -7.19653,-3.53382 -11.28132,-8.00977 -68.62875,-75.20065 -52.8358,-61.90484 -83.93419,-96.5 -86.7461,-96.5 -1.13811,0 -1.41567,12.65323 -1.67261,76.25 -0.23086,57.14301 -0.61719,77.15778 -1.54173,79.87267 -1.74836,5.134 -8.08766,11.93985 -14.35458,15.41103 l -5.35541,2.9663 -21.899,0.32143 -21.89899,0.32143 z M 624,548.77922 c 0,-1.07267 -0.57197,-2.31017 -1.27105,-2.75 -0.69908,-0.43983 -5.52695,-5.97469 -10.72859,-12.29969 -18.14787,-22.06711 -29.1517,-34.11748 -30.85557,-33.79014 -1.44477,0.27755 -1.68118,2.62499 -1.94401,19.30306 -0.34174,21.6847 0.15977,26.84763 2.8713,29.55916 1.77536,1.77536 3.51051,1.92792 21.92792,1.92792 19.16348,0 20,-0.0816 20,-1.95031 z m -65.58749,-50.06279 c 0.53174,-23.53507 0.47135,-24.64874 -1.51356,-27.91267 -3.28522,-5.4021 -12.1956,-15.07423 -13.88704,-15.07423 -2.27166,0 -25.41367,23.53419 -24.73854,25.15777 0.67175,1.61547 35.50375,42.04007 37.09469,43.05059 0.61337,0.3896 1.42468,0.3896 1.80292,0 0.37823,-0.3896 0.93692,-11.73926 1.24153,-25.22146 z m 67.92404,-33.15136 c 0.3649,-28.14046 0.66345,-61.66546 0.66345,-74.5 0,-22.01875 -0.10415,-23.33554 -1.84574,-23.33554 -1.64143,0 -19.89728,18.77103 -39.90426,41.03036 l -6.25,6.95362 v 24.5944 24.5944 l 22.2466,25.91361 c 12.23563,14.25249 22.73708,25.91361 23.33655,25.91361 0.76376,0 1.28851,-15.31238 1.7534,-51.16446 z M 516.40391,450.47953 c 5.8151,-6.1875 10.57812,-12.08691 10.5845,-13.10979 0.006,-1.02289 -2.12591,-4.19931 -4.73841,-7.05871 -2.6125,-2.85941 -9.45996,-11.0225 -15.21657,-18.14021 -11.11264,-13.74012 -35.44959,-43.06399 -47.98831,-57.82165 -16.4174,-19.32275 -32.48669,-38.42738 -37.32019,-44.36964 -2.7961,-3.4375 -5.67807,-6.25 -6.40437,-6.25 -1.06022,0 -1.32056,5.12578 -1.32056,26 0,14.3 -0.3375,25.98405 -0.75,25.96456 -0.4125,-0.0195 -1.875,-0.67854 -3.25,-1.46456 -3.27588,-1.87266 -9.76757,-1.86967 -13.36431,0.006 -1.57537,0.82161 -3.00985,1.49384 -3.18773,1.49384 -0.17789,0 -0.47447,-17.8875 -0.65908,-39.75 -0.18461,-21.8625 -0.70728,-40.52839 -1.16149,-41.47976 -0.45421,-0.95137 -2.31429,-2.64968 -4.1335,-3.77402 -3.05046,-1.88529 -4.65626,-2.02294 -20.65078,-1.77023 l -17.34311,0.27417 -0.66239,5 c -0.36432,2.75 -0.70182,34.8125 -0.75,71.25 -0.0703,53.19108 0.16458,66.25 1.1918,66.25 1.07115,0 23.05288,-23.72082 32.20229,-34.75 1.48285,-1.7875 3.056,-3.25 3.4959,-3.25 0.4399,0 1.08501,1.5202 1.43358,3.37822 0.80432,4.28743 4.39991,8.17996 9.83465,10.64684 5.1803,2.35139 8.65472,2.46116 13.52264,0.42721 7.10187,-2.96735 11.31896,-8.70406 11.41311,-15.52578 0.0298,-2.15957 0.33864,-3.89149 0.6863,-3.84872 0.34767,0.0428 4.45712,4.70327 9.13212,10.35665 4.675,5.65339 15.925,18.81005 25,29.23703 9.075,10.42698 21,24.32374 26.5,30.8817 14.06195,16.76684 19.51769,22.44685 21.56056,22.44685 0.97375,0 6.52826,-5.0625 12.34335,-11.25 z"
       id="path2" />
  </g>
</svg>
